<svg width="146" height="62" viewBox="0 0 146 62" xmlns="http://www.w3.org/2000/svg" class="icon Sierra_logo">
  <title>logo</title>
  <g fill="#FFF" fill-rule="evenodd">
    <path d="M80.151 20.4a2.708 2.708 0 0 0-.948-.695c-.388-.178-.84-.267-1.357-.267-.402 0-.765.086-1.088.257-.323.17-.485.435-.485.79 0 .287.136.507.409.664.271.157.672.321 1.201.492.658.214 1.245.456 1.76.727.515.27.952.585 1.31.941.357.357.633.763.826 1.22.193.456.29.969.29 1.538 0 .97-.215 1.797-.643 2.481a5.315 5.315 0 0 1-1.642 1.669 7.276 7.276 0 0 1-2.2.94c-.802.2-1.583.3-2.345.3-.603 0-1.206-.05-1.81-.15-.603-.1-1.18-.242-1.733-.428a9.244 9.244 0 0 1-1.562-.684 6.174 6.174 0 0 1-1.271-.92l3.403-3.122c.173.2.38.379.625.535.245.157.5.289.765.395.266.107.534.193.808.257.273.064.524.096.754.096.503 0 .905-.081 1.207-.246.301-.163.452-.402.452-.716 0-.256-.127-.484-.377-.684-.252-.2-.722-.406-1.412-.62-.545-.171-1.059-.371-1.54-.6a5.012 5.012 0 0 1-1.249-.823 3.426 3.426 0 0 1-.83-1.154c-.202-.45-.3-.995-.3-1.636 0-.784.16-1.511.483-2.182.323-.67.783-1.25 1.379-1.743.596-.49 1.307-.876 2.133-1.154.826-.278 1.734-.417 2.726-.417.544 0 1.084.046 1.616.139.53.093 1.033.221 1.507.385s.912.36 1.314.588c.402.228.74.484 1.013.77L80.15 20.4zM82.471 31.03l2.694-15.141h5.018l-2.692 15.14zM89.557 31.03l2.693-15.141h9.975l-.733 4.127h-5.277l-.26 1.454h5.043l-.69 3.849h-5.041l-.281 1.582h5.903l-.732 4.128zM110.288 31.03l-2.089-5.54h-.603l-.948 5.54h-4.804l2.693-15.141h6.269c.832 0 1.586.092 2.262.277.674.186 1.25.457 1.724.813.474.357.836.795 1.087 1.315.252.521.377 1.116.377 1.786 0 1.255-.298 2.288-.894 3.1-.596.814-1.41 1.37-2.445 1.67l2.973 6.18h-5.602zm-1.097-8.683c.66 0 1.176-.111 1.55-.332.373-.22.56-.573.56-1.059 0-.441-.155-.744-.463-.909-.31-.163-.73-.245-1.26-.245h-.927l-.452 2.545h.992zM124.818 31.03l-2.09-5.54h-.603l-.948 5.54h-4.804l2.693-15.141h6.268c.834 0 1.588.092 2.264.277.674.186 1.249.457 1.723.813.474.357.836.795 1.087 1.315.252.521.378 1.116.378 1.786 0 1.255-.299 2.288-.894 3.1-.596.814-1.411 1.37-2.446 1.67l2.973 6.18h-5.6zm-1.098-8.683c.66 0 1.176-.111 1.55-.332.374-.22.56-.573.56-1.059 0-.441-.154-.744-.463-.909-.308-.163-.73-.245-1.26-.245h-.927l-.452 2.545h.992z"></path>
    <path d="M140.343 31.03l-.345-2.31h-4.956l-1.27 2.31h-5.558l9.371-15.141h5.257l2.672 15.14h-5.171zm-1.207-9.988l-2.176 3.893h2.628l-.452-3.893zM75.62 46.666l-.25-1.668h-3.58l-.918 1.668h-4.014l6.77-10.936h3.796l1.93 10.936H75.62zm-.872-7.213l-1.572 2.81h1.898l-.326-2.81zM85.723 38.742l-1.4 7.924h-3.61l1.4-7.924h-2.786l.545-3.013h9.088l-.545 3.013zM98.649 38.742l-1.4 7.924h-3.611l1.4-7.924h-2.785l.545-3.013h9.088l-.545 3.013zM107.13 46.666l-.25-1.668h-3.58l-.917 1.668H98.37l6.769-10.936h3.797l1.93 10.936h-3.736zm-.871-7.213l-1.573 2.81h1.898l-.325-2.81zM118.018 46.666l.747-4.202h-3.143l-.747 4.202h-3.595l1.945-10.936h3.579l-.67 3.754h3.144l.67-3.754h3.61l-1.945 10.936zM129.024 46.944c-.882 0-1.662-.12-2.342-.363-.68-.241-1.25-.584-1.712-1.027a4.36 4.36 0 0 1-1.05-1.576 5.44 5.44 0 0 1-.358-2.008c0-.906.16-1.755.482-2.549a6.253 6.253 0 0 1 1.354-2.07 6.311 6.311 0 0 1 2.11-1.39c.824-.34 1.74-.51 2.746-.51.891 0 1.678.122 2.358.364.679.242 1.25.585 1.711 1.027.461.443.811.968 1.05 1.576a5.46 5.46 0 0 1 .358 2.008c0 .906-.158 1.756-.474 2.549a6.11 6.11 0 0 1-1.354 2.07 6.38 6.38 0 0 1-2.117 1.39c-.824.34-1.745.51-2.762.51m2.957-6.256c0-.279-.045-.538-.132-.78a1.806 1.806 0 0 0-.389-.634 1.807 1.807 0 0 0-.639-.425 2.277 2.277 0 0 0-.862-.155c-.406 0-.772.085-1.098.255a2.65 2.65 0 0 0-.833.672 3.11 3.11 0 0 0-.529.958 3.351 3.351 0 0 0-.186 1.097c0 .278.043.538.132.78.088.242.217.453.39.633.17.18.383.322.637.425.255.103.547.154.88.154a2.35 2.35 0 0 0 1.088-.247c.322-.164.597-.386.825-.663.229-.279.405-.598.53-.958.124-.36.186-.732.186-1.112M135.683 46.666l1.946-10.936h7.204l-.529 2.98h-3.812l-.187 1.051h3.64l-.497 2.78h-3.641l-.202 1.144h4.263l-.529 2.981zM58.415 43.13c-.292-.314-.638-.414-1.01-.558-.366-.127-.745-.236-.923-.302v-.001c-2.85-1.059-5.406-1.859-8.32-2.169.205-.22.406-.444.596-.67 1.965-2.339 3.16-4.958 3.16-7.76 0-5.584-7.87-6.66-17.2-7.669-10.735-1.144-14.394-2.422-14.394-5.515 0-3.903 5.245-10.226 14.698-10.226 11.04 0 14.15 5.18 14.822 5.18.426 0 .61-.538.61-1.614 0-5.18-7.137-6.525-10.552-6.525-11.162 0-24.824 7.6-24.824 15.202 0 5.785 7.929 6.526 16.467 7.265 7.259.605 15.126 1.278 15.126 6.995 0 1.776-.412 3.29-1.126 4.579a8.823 8.823 0 0 1-.389.633l-.289.007c-5.02.088-8.43.017-13.148 1.055l-.317.05.015-.105c.284-1.003.572-2.349.705-3.192l.05-.314-.275-.166a2.012 2.012 0 0 0-1.146-.317c-.37 0-.802.05-1.503.107l-.031.002-.03.007c-.673.144-1.924.322-1.924.322l-.035.006-.03.008c-.644.184-1.942.506-2.63.747-.944.33-1.819.692-2.85 1.264l-.263.14c-2.275 1.202-2.969 1.744-3.592 2.098l-.005.002-1.065.666c-.27.138-.65.396-1.017.637l-.043.029c.015-.251.02-.512.02-.765 0-.39-.012-.762-.012-1.029l-.001-.319-.299-.12a1.46 1.46 0 0 0-.565-.12c-.354.007-.636.104-1.236.247l-.029.007-.03.012c-.4.154-1.172.393-1.172.393l-.033.01-.029.014c-.38.178-.978.526-1.372.745l-.045-.008a.26.26 0 0 0-.255.172c-.568.311-1.155.658-1.785 1.169l-.007.005-.01.01c-1.25 1.117-1.568 1.392-1.94 1.692l-.013.01-.745.699-.022.028c-.01.013-.077.098-.15.228-.071.134-.164.302-.17.567a.718.718 0 0 0 .227.531.924.924 0 0 0 .559.22l.028.003h.027c.212-.017.296-.074.447-.142.416-.212 1.154-.69 2.566-1.653.434-.266.89-.532 1.34-.771.236.628.57 1.195.986 1.704 2.232 2.731 6.831 3.81 11.304 3.81 1.574 0 3.267-.158 5.019-.458v-.01c5.182-.888 10.856-3.028 15.339-6.037.605.024 1.223.06 1.852.111.792.065 1.491.18 2.056.347l.008.002.02.005s.245.056.666.174c1.265.35 4.073 1.256 6.04 2.678l.208.15.242-.09c.155-.069.846-.357 3.617-3.214a.673.673 0 0 0 .2-.467.679.679 0 0 0-.17-.439m-44.813.797v.063c0 .156-.004.344-.008.542a6.96 6.96 0 0 1-.78-.453c.29-.089.556-.144.788-.152m12.395 2.677c-1.254 0-5.346-.117-8.894-.907l.097-.042c0-.002.108-.063.289-.153.499-.248 1.57-.755 3.544-1.776l-.002.037.76-.427c2.162-1.223 4.544-2.178 6.129-2.168.332 0 .625.04.873.118-.029.276-.111.767-.196 1.259-.106.636-.217 1.293-.22 1.774.002.148.007.279.055.434a.68.68 0 0 0 .154.266.577.577 0 0 0 .41.173l.03.002.042-.005a108.04 108.04 0 0 0 3.332-.465l.205-.032.053-.01h.002l.006-.001h.006c.69-.102 3.69-.698 7.776-.82-4.758 2.344-11.059 2.743-14.451 2.743m36.203-15.445c0 16.906-13.807 30.611-30.839 30.611C14.33 61.77.521 48.064.521 31.158S14.33.546 31.361.546c17.031 0 30.838 13.706 30.838 30.612"></path>
  </g>
</svg>